<?xml version="1.0" encoding="UTF-8" standalone="no"?>
<svg
   xmlns:osb="http://www.openswatchbook.org/uri/2009/osb"
   xmlns:dc="http://purl.org/dc/elements/1.1/"
   xmlns:cc="http://creativecommons.org/ns#"
   xmlns:rdf="http://www.w3.org/1999/02/22-rdf-syntax-ns#"
   xmlns:svg="http://www.w3.org/2000/svg"
   xmlns="http://www.w3.org/2000/svg"
   xmlns:xlink="http://www.w3.org/1999/xlink"
   xmlns:sodipodi="http://sodipodi.sourceforge.net/DTD/sodipodi-0.dtd"
   xmlns:inkscape="http://www.inkscape.org/namespaces/inkscape"
   width="210mm"
   height="297mm"
   viewBox="0 0 210 297"
   version="1.1"
   id="svg8"
   inkscape:version="1.0.2-2 (e86c870879, 2021-01-15)"
   sodipodi:docname="storyboard.svg">
  <defs
     id="defs2">
    <linearGradient
       id="linearGradient6080"
       osb:paint="solid">
      <stop
         style="stop-color:#000000;stop-opacity:1;"
         offset="0"
         id="stop6078" />
    </linearGradient>
    <linearGradient
       id="linearGradient6074"
       osb:paint="solid">
      <stop
         style="stop-color:#000000;stop-opacity:1;"
         offset="0"
         id="stop6072" />
    </linearGradient>
    <linearGradient
       id="linearGradient6068"
       osb:paint="solid">
      <stop
         style="stop-color:#000000;stop-opacity:1;"
         offset="0"
         id="stop6066" />
    </linearGradient>
    <linearGradient
       id="linearGradient6060"
       osb:paint="solid">
      <stop
         style="stop-color:#000000;stop-opacity:1;"
         offset="0"
         id="stop6058" />
    </linearGradient>
    <symbol
       id="editor-ul">
      <title
         id="title3637">editor-ul</title>
      <path
         d="m 1.4552083,1.8520833 c -0.2196041,0 -0.396875,-0.1772708 -0.396875,-0.396875 0,-0.2169583 0.1772709,-0.396875 0.396875,-0.396875 0.2169584,0 0.396875,0.1799167 0.396875,0.396875 0,0.2196042 -0.1799166,0.396875 -0.396875,0.396875 z M 2.1166667,1.3229167 h 2.38125 V 1.5875 h -2.38125 z M 1.4552083,3.175 c -0.2196041,0 -0.396875,-0.1772708 -0.396875,-0.396875 0,-0.2169583 0.1772709,-0.396875 0.396875,-0.396875 0.2169584,0 0.396875,0.1799167 0.396875,0.396875 0,0.2196042 -0.1799166,0.396875 -0.396875,0.396875 z M 2.1166667,2.6458333 h 2.38125 v 0.2645834 h -2.38125 z M 1.4552083,4.4979167 c -0.2196041,0 -0.396875,-0.1772709 -0.396875,-0.396875 0,-0.2169584 0.1772709,-0.396875 0.396875,-0.396875 0.2169584,0 0.396875,0.1799166 0.396875,0.396875 0,0.2196041 -0.1799166,0.396875 -0.396875,0.396875 z M 2.1166667,3.96875 h 2.38125 v 0.2645833 h -2.38125 z"
         id="path3639"
         style="stroke-width:0.264583" />
    </symbol>
    <symbol
       id="plus">
      <title
         id="title4037">plus</title>
      <path
         d="m 4.4979167,1.8520833 v 0.79375 H 3.175 V 3.96875 H 2.38125 V 2.6458333 H 1.0583333 v -0.79375 H 2.38125 V 0.52916667 H 3.175 V 1.8520833 Z"
         id="path4039"
         style="stroke-width:0.264583" />
    </symbol>
    <symbol
       id="search">
      <title
         id="title4087">search</title>
      <path
         d="m 3.2120417,1.1059583 a 1.4562667,1.4562667 0 0 1 0.1905,1.8229792 c 0.03175,0.026458 0.058208,0.055563 0.09525,0.082021 0.052917,0.042333 0.1243541,0.09525 0.2143125,0.1561042 0.089958,0.0635 0.1481666,0.1031875 0.174625,0.1243542 0.111125,0.082021 0.1931458,0.1508125 0.2487083,0.206375 0.084667,0.084667 0.15875,0.1719791 0.22225,0.2645833 0.066146,0.092604 0.1164167,0.1825625 0.1561042,0.2751667 0.037042,0.092604 0.055563,0.1799166 0.047625,0.2645833 -0.00529,0.084667 -0.037042,0.1561042 -0.09525,0.2143125 -0.058208,0.058208 -0.1296459,0.089958 -0.2143125,0.09525 C 4.1698333,4.6169792 4.079875,4.6011042 3.9899167,4.5614167 3.8973125,4.524375 3.8047083,4.4714583 3.71475,4.4053125 3.6221458,4.3418125 3.5348333,4.2677292 3.4501667,4.1830625 3.3946042,4.1275 3.3258125,4.0454792 3.2464375,3.937 3.2199792,3.9026042 3.1802917,3.8443958 3.1220833,3.762375 3.063875,3.6777083 3.01625,3.6115625 2.9739167,3.556 2.9315833,3.5030833 2.8971875,3.4633958 2.8575,3.4237083 A 1.4560021,1.4560021 0 0 1 1.1535833,3.1644167 c -0.5662083,-0.5688542 -0.5662083,-1.49225 0,-2.0584584 a 1.4546792,1.4546792 0 0 1 2.0584584,0 z m -0.3730625,1.68275 a 0.92948125,0.92948125 0 0 0 0,-1.3096875 0.92471875,0.92471875 0 0 0 -1.3096875,0 0.92471875,0.92471875 0 0 0 0,1.3096875 0.92471875,0.92471875 0 0 0 1.3096875,0 z"
         id="path4089"
         style="stroke-width:0.264583" />
    </symbol>
    <symbol
       id="admin-users">
      <title
         id="title3232">admin-users</title>
      <path
         d="m 2.6458333,2.4473958 c -0.6006041,0 -0.7223125,-0.9101666 -0.7223125,-0.9101666 -0.071437,-0.4736042 0.1455209,-1.00806253 0.714375,-1.00806253 0.5715,0 0.7884584,0.53445833 0.7170209,1.00806253 0,0 -0.1084792,0.9101666 -0.7090834,0.9101666 z m 0,0.6799792 L 3.3655,2.6458333 c 0.6323542,0 1.1959167,0.6164792 1.1959167,1.1985625 v 0.6588125 c 0,0 -0.9657292,0.2989792 -1.9155834,0.2989792 -0.9657291,0 -1.9155833,-0.2989792 -1.9155833,-0.2989792 V 3.8443958 c 0,-0.5953125 0.5132917,-1.1853333 1.1826875,-1.1853333 z"
         id="path3234"
         style="stroke-width:0.264583" />
    </symbol>
  </defs>
  <sodipodi:namedview
     id="base"
     pagecolor="#ffffff"
     bordercolor="#666666"
     borderopacity="1.0"
     inkscape:pageopacity="0.0"
     inkscape:pageshadow="2"
     inkscape:zoom="0.5"
     inkscape:cx="264.83117"
     inkscape:cy="241.93928"
     inkscape:document-units="mm"
     inkscape:current-layer="layer1"
     inkscape:document-rotation="0"
     showgrid="false"
     inkscape:snap-page="true"
     inkscape:window-width="1920"
     inkscape:window-height="1017"
     inkscape:window-x="-8"
     inkscape:window-y="-8"
     inkscape:window-maximized="1" />
  <metadata
     id="metadata5">
    <rdf:RDF>
      <cc:Work
         rdf:about="">
        <dc:format>image/svg+xml</dc:format>
        <dc:type
           rdf:resource="http://purl.org/dc/dcmitype/StillImage" />
        <dc:title />
      </cc:Work>
    </rdf:RDF>
  </metadata>
  <g
     inkscape:label="Layer 1"
     inkscape:groupmode="layer"
     id="layer1">
    <g
       id="g6097"
       transform="translate(-265.97009,-2.240005)">
      <rect
         style="opacity:1;fill:#e6e6e6;stroke:#000000;stroke-width:0.45;stroke-miterlimit:4;stroke-dasharray:none;stroke-opacity:1"
         id="rect54-8"
         width="210"
         height="297"
         x="265.97009"
         y="2.240005"
         ry="0.86842024" />
      <rect
         style="fill:#0000ff;stroke:#000000;stroke-width:0.258919;stroke-opacity:1"
         id="rect886-7"
         width="69.497841"
         height="28.059525"
         x="265.97009"
         y="271.18051"
         ry="0.75595164" />
      <rect
         style="fill:#0000ff;stroke:#000000;stroke-width:0.3;stroke-miterlimit:4;stroke-dasharray:none;stroke-opacity:1"
         id="rect888-9"
         width="70.366295"
         height="28.059526"
         x="405.60382"
         y="271.18051"
         ry="0.75595164" />
      <rect
         style="fill:#0000ff;stroke:#000000;stroke-width:0.265599;stroke-opacity:1"
         id="rect890-9"
         width="64.750198"
         height="28.059523"
         x="338.23904"
         y="271.18051"
         ry="0.75595164" />
      <use
         xlink:href="#plus"
         style="fill:#000000;stroke:none"
         id="use5097-1"
         x="0"
         y="0"
         width="100%"
         height="100%"
         transform="matrix(2.4285714,0,0,2.4285714,294.18601,279.69343)" />
      <use
         xlink:href="#search"
         style="fill:#000000;stroke:none"
         id="use5122-8"
         x="0"
         y="0"
         width="100%"
         height="100%"
         transform="matrix(2.6265294,0,0,2.4894579,364.00298,278.66265)" />
      <use
         xlink:href="#admin-users"
         style="fill:#000000;stroke:none"
         id="use5147-1"
         x="0"
         y="0"
         width="100%"
         height="100%"
         transform="matrix(2.639405,0,0,2.2509629,435.07018,279.46798)" />
    </g>
    <text
       xml:space="preserve"
       style="font-style:normal;font-weight:normal;font-size:10.5833px;line-height:1.25;font-family:sans-serif;fill:#000000;fill-opacity:1;stroke:none;stroke-width:0.264583"
       x="12.170834"
       y="15.875"
       id="text372"><tspan
         sodipodi:role="line"
         id="tspan370"
         x="12.170834"
         y="15.875"
         style="stroke-width:0.264583">Add experiment page template</tspan></text>
  </g>
</svg>
